<?xml version="1.0" encoding="UTF-8" standalone="no" ?>
<!DOCTYPE svg PUBLIC "-//W3C//DTD SVG 1.1//EN" "http://www.w3.org/Graphics/SVG/1.1/DTD/svg11.dtd">
<svg xmlns="http://www.w3.org/2000/svg" xmlns:xlink="http://www.w3.org/1999/xlink" version="1.1" width="1280" height="1024" viewBox="0 0 1280 1024" xml:space="preserve">
<desc>Created with Fabric.js 5.3.0</desc>
<defs>
</defs>
<g transform="matrix(1 0 0 1 640 512)" id="background-logo"  >
<rect style="stroke: none; stroke-width: 0; stroke-dasharray: none; stroke-linecap: butt; stroke-dashoffset: 0; stroke-linejoin: miter; stroke-miterlimit: 4; fill: rgb(12,52,90); fill-rule: nonzero; opacity: 1;"  paint-order="stroke"  x="-640" y="-512" rx="0" ry="0" width="1280" height="1024" />
</g>
<g transform="matrix(1.9211538461538462 0 0 1.9211538461538462 300.42763157894734 492.4494177743217)" id="logo-logo"  >
<g style=""  paint-order="stroke"   >
		<g transform="matrix(0.9979082890072922 0 0 0.9979082890072922 -45.12910080241977 -45.12899972172747)"  >
<g style=""  paint-order="stroke"   >
		<g transform="matrix(1 0 0 1 14.436996893839392 14.435986523251401)"  >
<path style="stroke: none; stroke-width: 1; stroke-dasharray: none; stroke-linecap: butt; stroke-dashoffset: 0; stroke-linejoin: miter; stroke-miterlimit: 4; fill: rgb(196,223,247); fill-rule: nonzero; opacity: 1;"  paint-order="stroke"  transform=" translate(-131.71330211498568, -99.2123939869647)" d="M 120.6014938 81.5684814 L 148.42601009999998 100.74152369999999 C 149.31086729999998 101.35126489999999 149.78198239999998 102.38696279999999 149.7026062 103.4586258 C 149.4407196 106.99431609999999 149.5020294 110.54610439999999 149.8690796 114.07389069999999 C 150.06747439999998 115.98060609999999 148.481247 117.5668183 146.5745392 117.36842349999999 C 143.0466156 117.00133519999999 139.4945984 116.9402085 135.9588928 117.20206459999999 C 134.8872223 117.28144079999998 133.8515167 116.81027229999998 133.2417907 115.92537699999998 L 114.06958759999999 88.10025039999998 C 113.2496566 86.91026319999997 113.39624009999999 85.30451979999998 114.4180983 84.28266159999998 L 116.78382859999999 81.91693889999998 C 117.8057022 80.8950577 119.4114914 80.7484894 120.6014938 81.5684814 z" stroke-linecap="round" />
</g>
		<g transform="matrix(1 0 0 1 26.35032718953127 -13.418730087429594)"  >
<path style="stroke: none; stroke-width: 1; stroke-dasharray: none; stroke-linecap: butt; stroke-dashoffset: 0; stroke-linejoin: miter; stroke-miterlimit: 4; fill: rgb(196,223,247); fill-rule: nonzero; opacity: 1;"  paint-order="stroke"  transform=" translate(-143.62663241067756, -71.3576773762837)" d="M 151.1227875 71.0925522 C 149.02000429999998 73.1953278 147.20399479999998 75.4755402 145.6569672 77.88056950000001 C 144.7320862 79.3184128 142.82456969999998 79.7368775 141.4167939 78.7668381 L 133.86434939999998 73.5627518 C 131.9241181 72.2258225 132.22247319999997 69.2890625 134.3779908 68.3374176 C 139.786377 65.94965359999999 145.4516602 64.3225861 151.2105866 63.4603348 C 154.1564179 63.0192719 155.8887635 66.6243515 153.691391 68.6353302 C 152.8213959 69.4315186 151.9648743 70.2504578 151.1227875 71.0925522 z" stroke-linecap="round" />
</g>
		<g transform="matrix(1 0 0 1 -21.19780590861967 -21.198142070452604)"  >
<path style="stroke: none; stroke-width: 1; stroke-dasharray: none; stroke-linecap: butt; stroke-dashoffset: 0; stroke-linejoin: miter; stroke-miterlimit: 4; fill: rgb(196,223,247); fill-rule: nonzero; opacity: 1;"  paint-order="stroke"  transform=" translate(-96.07849931252662, -63.57826539326069)" d="M 86.2039108 76.4462738 C 77.7583236 69.9085846 77.7579956 57.2494431 86.20364380000001 50.7107429 C 91.95889280000002 46.2549743 100.2041245 46.2560348 105.9577332 50.7139205 C 114.39754490000001 57.2530707 114.39721680000001 69.9049682 105.9574585 76.44309989999999 C 100.2038269 80.9003372 91.9591827 80.9013901 86.2039108 76.4462738 z" stroke-linecap="round" />
</g>
		<g transform="matrix(1 0 0 1 -13.418362402352926 26.349782613569744)"  >
<path style="stroke: none; stroke-width: 1; stroke-dasharray: none; stroke-linecap: butt; stroke-dashoffset: 0; stroke-linejoin: miter; stroke-miterlimit: 4; fill: rgb(196,223,247); fill-rule: nonzero; opacity: 1;"  paint-order="stroke"  transform=" translate(-103.85794281879336, -111.12619007728304)" d="M 106.0632248 101.3634491 L 111.2673493 108.916214 C 112.2373505 110.3239746 111.81888590000001 112.23144529999999 110.38108070000001 113.15633389999999 C 107.97623450000002 114.70327759999999 105.69619000000002 116.51912689999999 103.59350590000001 118.62181089999999 C 102.75109100000002 119.46422579999998 101.93185430000001 120.32107539999998 101.13539130000001 121.19140619999999 C 99.12445070000001 123.3888473 95.51931770000002 121.65648649999999 95.96038060000001 118.71063229999999 C 96.8226853 112.95136259999998 98.4498978 107.28571319999999 100.83786780000001 101.8770218 C 101.7895432 99.7215042 104.7263107 99.4231873 106.0632248 101.3634491 z" stroke-linecap="round" />
</g>
</g>
</g>
		<g transform="matrix(0.9979082890072922 0 0 0.9979082890072922 45.12909987935399 45.128999025100455)"  >
<g style=""  paint-order="stroke"   >
		<g transform="matrix(1 0 0 1 -14.436995246743066 -14.43598798169731)"  >
<path style="stroke: none; stroke-width: 1; stroke-dasharray: none; stroke-linecap: butt; stroke-dashoffset: 0; stroke-linejoin: miter; stroke-miterlimit: 4; fill: rgb(102,171,235); fill-rule: nonzero; opacity: 1;"  paint-order="stroke"  transform=" translate(-193.28670045711132, -160.78760760650349)" d="M 204.3985138 178.4315186 L 176.5739899 159.2584687 C 175.6891327 158.6487427 175.2180176 157.6130372 175.29739379999998 156.5413819 C 175.55928039999998 153.0056916 175.49797059999997 149.453888 175.13092039999998 145.9261017 C 174.9325256 144.0193939 176.51875299999998 142.4331818 178.42546079999997 142.63157660000002 C 181.95338439999998 142.99867250000003 185.50540159999997 143.0597993 189.04110719999997 142.79792790000002 C 190.11277769999998 142.7185669 191.14848329999998 143.18972780000001 191.75820929999998 144.07463080000002 L 210.93041999999997 171.89974980000002 C 211.75035099999997 173.089737 211.60375979999998 174.69548040000004 210.58190929999998 175.71733100000003 L 208.21617139999998 178.08306890000003 C 207.1942902 179.10495 205.588501 179.2515106 204.3985138 178.4315186 z" stroke-linecap="round" />
</g>
		<g transform="matrix(1 0 0 1 -26.350328114531948 13.418723829472356)"  >
<path style="stroke: none; stroke-width: 1; stroke-dasharray: none; stroke-linecap: butt; stroke-dashoffset: 0; stroke-linejoin: miter; stroke-miterlimit: 4; fill: rgb(102,171,235); fill-rule: nonzero; opacity: 1;"  paint-order="stroke"  transform=" translate(-181.37336758932244, -188.64231941767315)" d="M 173.8772125 188.9074554 C 175.97999570000002 186.8046722 177.79600520000002 184.52445980000002 179.3430328 182.1194305 C 180.2679138 180.6815948 182.17543030000002 180.26312249999998 183.5832061 181.2331543 L 191.13565060000002 186.4372406 C 193.0758819 187.7741852 192.77752680000003 190.7109375 190.6220092 191.6625824 C 185.213623 194.0503387 179.5483398 195.67741389999998 173.7894134 196.5396576 C 170.8435821 196.9807282 169.1112365 193.3756409 171.308609 191.3646698 C 172.1786041 190.5684814 173.0351257 189.7495422 173.8772125 188.9074554 z" stroke-linecap="round" />
</g>
		<g transform="matrix(1 0 0 1 21.197807333644988 21.198141154854)"  >
<path style="stroke: none; stroke-width: 1; stroke-dasharray: none; stroke-linecap: butt; stroke-dashoffset: 0; stroke-linejoin: miter; stroke-miterlimit: 4; fill: rgb(102,171,235); fill-rule: nonzero; opacity: 1;"  paint-order="stroke"  transform=" translate(-228.92150303749938, -196.4217367430548)" d="M 238.7960815 183.5537262 C 247.24168390000003 190.0914154 247.2420044 202.7505646 238.79635620000002 209.2892609 C 233.04110720000003 213.74502569999999 224.79586790000002 213.7439728 219.04226680000002 209.28608709999997 C 210.60246270000002 202.74693299999998 210.60278320000003 190.0950318 219.04254150000003 183.55690009999998 C 224.7961731 179.0996704 233.0408173 179.0986023 238.7960815 183.5537262 z" stroke-linecap="round" />
</g>
		<g transform="matrix(1 0 0 1 13.41835712724719 -26.34978637029164)"  >
<path style="stroke: none; stroke-width: 1; stroke-dasharray: none; stroke-linecap: butt; stroke-dashoffset: 0; stroke-linejoin: miter; stroke-miterlimit: 4; fill: rgb(102,171,235); fill-rule: nonzero; opacity: 1;"  paint-order="stroke"  transform=" translate(-221.14205283110158, -148.87380921790916)" d="M 218.9367828 158.6365509 L 213.7326507 151.083786 C 212.76264949999998 149.67602540000001 213.1811065 147.7685547 214.61891169999998 146.8436737 C 217.0237579 145.29672240000002 219.3038177 143.48086550000002 221.40649409999997 141.37818910000001 C 222.24891659999997 140.53578190000002 223.06814569999997 139.67892460000002 223.86460869999996 138.8085938 C 225.87554929999996 136.61116030000002 229.48068229999996 138.34350590000003 229.03961179999996 141.2893677 C 228.17732239999995 147.04862980000001 226.55010979999997 152.71429450000002 224.16213989999997 158.1229706 C 223.2104645 160.2784882 220.2736816 160.5768127 218.9367828 158.6365509 z" stroke-linecap="round" />
</g>
</g>
</g>
		<g transform="matrix(0.9979082890072922 0 0 0.9979082890072922 45.128999973113366 -45.12909958030795)"  >
<g style=""  paint-order="stroke"   >
		<g transform="matrix(1 0 0 1 -14.435987981697338 14.436997863007875)"  >
<path style="stroke: none; stroke-width: 1; stroke-dasharray: none; stroke-linecap: butt; stroke-dashoffset: 0; stroke-linejoin: miter; stroke-miterlimit: 4; fill: rgb(120,180,237); fill-rule: nonzero; opacity: 1;"  paint-order="stroke"  transform=" translate(-193.28760760650349, -99.21330525882763)" d="M 210.9315186 88.1014938 L 191.7584687 115.9260025 C 191.1487427 116.8108673 190.1130372 117.28199 189.0413819 117.2026138 C 185.5056916 116.9407196 181.953888 117.0020218 178.4261017 117.3690872 C 176.5193939 117.5674743 174.9331818 115.9812393 175.13157660000002 114.07453149999999 C 175.49867250000003 110.54661549999999 175.5597993 106.99459069999999 175.29792790000002 103.45890039999999 C 175.2185669 102.3872146 175.68972780000001 101.35151669999999 176.57463080000002 100.74179829999999 L 204.39974980000002 81.56958759999998 C 205.589737 80.74965659999998 207.19548040000004 80.89624009999997 208.21733100000003 81.91809829999998 L 210.58306890000003 84.28382859999998 C 211.60495 85.3057022 211.7515106 86.9114914 210.9315186 88.1014938 z" stroke-linecap="round" />
</g>
		<g transform="matrix(1 0 0 1 13.418723829472327 26.350330039531272)"  >
<path style="stroke: none; stroke-width: 1; stroke-dasharray: none; stroke-linecap: butt; stroke-dashoffset: 0; stroke-linejoin: miter; stroke-miterlimit: 4; fill: rgb(120,180,237); fill-rule: nonzero; opacity: 1;"  paint-order="stroke"  transform=" translate(-221.14231941767315, -111.12663743535103)" d="M 221.4074554 118.6227798 C 219.3046722 116.5200042 217.02445980000002 114.70399470000001 214.6194305 113.1569671 C 213.1815948 112.2320861 212.76312249999998 110.3245696 213.7331543 108.91679380000001 L 218.9372406 101.36435700000001 C 220.2741852 99.42412570000002 223.2109375 99.72248080000001 224.1625824 101.87799840000001 C 226.5503387 107.2863846 228.17741389999998 112.9516602 229.0396576 118.71058660000001 C 229.4807282 121.65642550000001 225.8756409 123.38877110000001 223.8646698 121.1913834 C 223.0684814 120.3213959 222.2495422 119.4648743 221.4074554 118.6227798 z" stroke-linecap="round" />
</g>
		<g transform="matrix(1 0 0 1 21.198141154854 -21.19780713329314)"  >
<path style="stroke: none; stroke-width: 1; stroke-dasharray: none; stroke-linecap: butt; stroke-dashoffset: 0; stroke-linejoin: miter; stroke-miterlimit: 4; fill: rgb(120,180,237); fill-rule: nonzero; opacity: 1;"  paint-order="stroke"  transform=" translate(-228.92173674305482, -63.57850026252662)" d="M 216.0537262 53.7039146 C 222.5914154 45.2583236 235.2505646 45.257999399999996 241.7892609 53.703643799999995 C 246.24502569999999 59.45888899999999 246.2439728 67.70412449999999 241.78608709999997 73.45773319999999 C 235.24693299999998 81.89754489999999 222.5950318 81.8972168 216.05690009999998 73.45745849999999 C 211.5996704 67.7038269 211.5986023 59.4591827 216.0537262 53.7039146 z" stroke-linecap="round" />
</g>
		<g transform="matrix(1 0 0 1 -26.349786370291696 -13.418362982482321)"  >
<path style="stroke: none; stroke-width: 1; stroke-dasharray: none; stroke-linecap: butt; stroke-dashoffset: 0; stroke-linejoin: miter; stroke-miterlimit: 4; fill: rgb(120,180,237); fill-rule: nonzero; opacity: 1;"  paint-order="stroke"  transform=" translate(-181.37380921790913, -71.35794441333744)" d="M 191.1365509 73.5632248 L 183.583786 78.7673493 C 182.17602540000001 79.7373505 180.2685547 79.31888590000001 179.3436737 77.88108070000001 C 177.79672240000002 75.47623450000002 175.98086550000002 73.19619000000002 173.87818910000001 71.09350590000001 C 173.03578190000002 70.25109100000002 172.17892460000002 69.43185430000001 171.3085938 68.63539130000001 C 169.11116030000002 66.62445070000001 170.84350590000003 63.01931770000001 173.7893677 63.46038440000001 C 179.54862980000001 64.3226853 185.21429450000002 65.9498978 190.6229706 68.33786780000001 C 192.7784882 69.2895432 193.0768127 72.2263107 191.1365509 73.5632248 z" stroke-linecap="round" />
</g>
</g>
</g>
		<g transform="matrix(0.9979082890072922 0 0 0.9979082890072922 -45.128999399654845 45.12909893134105)"  >
<g style=""  paint-order="stroke"   >
		<g transform="matrix(1 0 0 1 14.435987093551603 -14.436995246743095)"  >
<path style="stroke: none; stroke-width: 1; stroke-dasharray: none; stroke-linecap: butt; stroke-dashoffset: 0; stroke-linejoin: miter; stroke-miterlimit: 4; fill: rgb(28,123,212); fill-rule: nonzero; opacity: 1;"  paint-order="stroke"  transform=" translate(-131.71239393001264, -160.7867004571113)" d="M 114.0684814 171.8985138 L 133.2415313 144.0739899 C 133.8512573 143.1891327 134.8869628 142.7180176 135.9586181 142.79739379999998 C 139.4943084 143.05928039999998 143.046112 142.99797059999997 146.5738983 142.63092039999998 C 148.4806061 142.4325256 150.0668182 144.01875299999998 149.86842339999998 145.92546079999997 C 149.50132749999997 149.45338439999998 149.4402007 153.00540159999997 149.70207209999998 156.54110719999997 C 149.7814331 157.61277769999998 149.31027219999999 158.64848329999998 148.42536919999998 159.25820929999998 L 120.60025019999998 178.43041999999997 C 119.41026299999997 179.25035099999997 117.80451959999998 179.10375979999998 116.78266139999998 178.08190929999998 L 114.41693869999997 175.71617139999998 C 113.3950577 174.6942902 113.2484894 173.088501 114.0684814 171.8985138 z" stroke-linecap="round" />
</g>
		<g transform="matrix(1 0 0 1 -13.418729460177332 -26.35032811453192)"  >
<path style="stroke: none; stroke-width: 1; stroke-dasharray: none; stroke-linecap: butt; stroke-dashoffset: 0; stroke-linejoin: miter; stroke-miterlimit: 4; fill: rgb(28,123,212); fill-rule: nonzero; opacity: 1;"  paint-order="stroke"  transform=" translate(-103.8576773762837, -148.87336758932247)" d="M 103.5925522 141.3772125 C 105.6953278 143.47999570000002 107.9755402 145.29600520000002 110.38056950000001 146.8430328 C 111.8184128 147.7679138 112.2368775 149.67543030000002 111.2668381 151.0832061 L 106.0627518 158.63565060000002 C 104.7258225 160.5758819 101.7890625 160.27752680000003 100.8374176 158.1220092 C 98.44965359999999 152.713623 96.8225861 147.0483398 95.9603348 141.2894134 C 95.51927189999999 138.3435821 99.1243515 136.6112365 101.1353302 138.808609 C 101.9315186 139.6786041 102.7504578 140.5351257 103.5925522 141.3772125 z" stroke-linecap="round" />
</g>
		<g transform="matrix(1 0 0 1 -21.198141149285448 21.19780733364496)"  >
<path style="stroke: none; stroke-width: 1; stroke-dasharray: none; stroke-linecap: butt; stroke-dashoffset: 0; stroke-linejoin: miter; stroke-miterlimit: 4; fill: rgb(28,123,212); fill-rule: nonzero; opacity: 1;"  paint-order="stroke"  transform=" translate(-96.07826568717559, -196.42150303749935)" d="M 108.9462738 206.2960815 C 102.4085846 214.74168390000003 89.74944310000001 214.7420044 83.2107468 206.29635620000002 C 78.7549744 200.54110720000003 78.75603489999999 192.29586790000002 83.2139206 186.54226680000002 C 89.75306699999999 178.10246270000002 102.4049683 178.10278320000003 108.94309999999999 186.54254150000003 C 113.4003372 192.2961731 113.4013901 200.5408173 108.9462738 206.2960815 z" stroke-linecap="round" />
</g>
		<g transform="matrix(1 0 0 1 26.34978394562978 13.41835712724719)"  >
<path style="stroke: none; stroke-width: 1; stroke-dasharray: none; stroke-linecap: butt; stroke-dashoffset: 0; stroke-linejoin: miter; stroke-miterlimit: 4; fill: rgb(28,123,212); fill-rule: nonzero; opacity: 1;"  paint-order="stroke"  transform=" translate(-143.62619078209082, -188.64205283110158)" d="M 133.8634491 186.4367828 L 141.416214 181.2326507 C 142.82397459999999 180.26264949999998 144.7314453 180.6811065 145.6563263 182.11891169999998 C 147.20327759999998 184.5237579 149.01913449999998 186.8038177 151.12181089999999 188.90649409999997 C 151.96421809999998 189.74891659999997 152.82107539999998 190.56814569999997 153.6914062 191.36460869999996 C 155.88883969999998 193.37554929999996 154.15649409999997 196.98068229999996 151.2106323 196.53961179999996 C 145.45137019999999 195.67732239999995 139.78570549999998 194.05010979999997 134.3770294 191.66213989999997 C 132.2215118 190.7104645 131.9231873 187.7736816 133.8634491 186.4367828 z" stroke-linecap="round" />
</g>
</g>
</g>
</g>
</g>
<g transform="matrix(1.9211538461538462 0 0 1.9211538461538462 823.9039453153653 454.30431563688893)" id="text-logo"  >
<g style=""  paint-order="stroke"   >
		<g transform="matrix(1 0 0 1 0 0)" id="text-logo-path-0"  >
<path style="stroke: none; stroke-width: 0; stroke-dasharray: none; stroke-linecap: butt; stroke-dashoffset: 0; stroke-linejoin: miter; stroke-miterlimit: 4; fill: rgb(196,223,247); fill-rule: nonzero; opacity: 1;"  paint-order="stroke"  transform=" translate(-169.28, 20.85)" d="M 36.08 -7.43 L 36.08 0 L 5.14 0 L 5.14 -41.7 L 35.47 -41.7 L 35.47 -34.33 L 14.63 -34.33 L 14.63 -24.6 L 34.08 -24.6 L 34.08 -17.22 L 14.63 -17.22 L 14.63 -7.43 L 36.08 -7.43 Z M 86.3 0 L 76.63 -15.05 L 67.63 0 L 56.32 0 L 71.25 -21.03 L 57.35 -41.7 L 68.35 -41.7 L 76.99 -26.95 L 86.24 -41.7 L 97.12 -41.7 L 82.55 -21.21 L 97.36 0 L 86.3 0 Z M 141.11 -41.4 L 141.11 -41.4 Q 143.47 -41.16 145.53 -40.19 Q 147.58 -39.22 149.12 -37.62 Q 150.66 -36.02 151.57 -33.72 Q 152.48 -31.43 152.48 -28.46 L 152.48 -28.46 Q 152.48 -25.5 151.54 -23.21 Q 150.6 -20.91 149.06 -19.31 Q 147.52 -17.71 145.46 -16.77 Q 143.41 -15.83 141.11 -15.53 L 141.11 -15.53 Q 139.54 -15.35 138.15 -15.29 Q 136.76 -15.23 134.89 -15.23 L 134.89 -15.23 L 129.33 -15.23 L 129.33 0 L 119.84 0 L 119.84 -41.7 L 134.89 -41.7 Q 136.76 -41.7 138.15 -41.64 Q 139.54 -41.58 141.11 -41.4 Z M 137.85 -22.78 L 137.85 -22.78 Q 139.97 -23.09 141.26 -24.42 Q 142.56 -25.74 142.56 -28.46 L 142.56 -28.46 Q 142.56 -31.18 141.26 -32.51 Q 139.97 -33.84 137.85 -34.15 L 137.85 -34.15 Q 137.19 -34.27 136.37 -34.27 Q 135.55 -34.27 134.53 -34.27 L 134.53 -34.27 L 129.33 -34.27 L 129.33 -22.66 L 134.53 -22.66 Q 135.55 -22.66 136.37 -22.66 Q 137.19 -22.66 137.85 -22.78 Z M 195.26 -11.78 L 181.66 -11.78 L 177.8 0 L 167.7 0 L 182.75 -41.7 L 194.48 -41.7 L 209.34 0 L 199.07 0 L 195.26 -11.78 Z M 188.49 -33.48 L 184.02 -19.22 L 192.91 -19.22 L 188.49 -33.48 Z M 269.48 0 L 256.85 0 L 240.53 -29.85 Q 240.77 -26.53 240.83 -23.48 Q 240.89 -20.43 240.89 -18.13 L 240.89 -18.13 L 240.89 0 L 231.4 0 L 231.4 -41.7 L 243.55 -41.7 L 260.35 -11 Q 260.17 -14.26 260.11 -17.56 Q 260.05 -20.85 260.05 -23.15 L 260.05 -23.15 L 260.05 -41.7 L 269.48 -41.7 L 269.48 0 Z M 316.01 -41.46 L 316.01 -41.46 Q 319.64 -41.03 322.81 -39.68 Q 325.98 -38.32 328.34 -35.87 Q 330.7 -33.42 332.06 -29.82 Q 333.42 -26.23 333.42 -21.39 L 333.42 -21.39 Q 333.42 -16.56 332.06 -12.81 Q 330.7 -9.07 328.31 -6.41 Q 325.92 -3.75 322.75 -2.21 Q 319.58 -0.66 315.95 -0.24 L 315.95 -0.24 Q 314.38 -0.06 313.35 -0.03 Q 312.32 0 310.63 0 L 310.63 0 L 295.7 0 L 295.7 -41.7 L 310.69 -41.7 Q 312.38 -41.7 313.41 -41.67 Q 314.44 -41.64 316.01 -41.46 Z M 313.65 -7.55 L 313.65 -7.55 Q 318.06 -8.04 320.75 -11.63 Q 323.44 -15.23 323.44 -21.27 L 323.44 -21.27 Q 323.44 -27.2 320.78 -30.43 Q 318.13 -33.66 313.71 -34.15 L 313.71 -34.15 Q 312.69 -34.27 311.75 -34.3 Q 310.81 -34.33 309.48 -34.33 L 309.48 -34.33 L 305.19 -34.33 L 305.19 -7.43 L 309.42 -7.43 Q 310.75 -7.43 311.69 -7.43 Q 312.63 -7.43 313.65 -7.55 Z" stroke-linecap="round" />
</g>
</g>
</g>
<g transform="matrix(1.9211538461538462 0 0 1.9211538461538462 752.5611313006073 566.7385698846155)" id="tagline-8dc8f12d-351a-4038-afec-8442d1d74c93-logo"  >
<g style=""  paint-order="stroke"   >
		<g transform="matrix(1 0 0 1 0 0)" id="tagline-8dc8f12d-351a-4038-afec-8442d1d74c93-logo-path-0"  >
<path style="stroke: none; stroke-width: 0; stroke-dasharray: none; stroke-linecap: butt; stroke-dashoffset: 0; stroke-linejoin: miter; stroke-miterlimit: 4; fill: rgb(102,171,235); fill-rule: nonzero; opacity: 1;"  paint-order="stroke"  transform=" translate(-126.30000000000001, 6.364999999999999)" d="M 1.69 0 L 2.39 -5.7 L 9.99 -5.7 L 9.29 0 L 10.81 0 L 12.37 -12.73 L 10.85 -12.73 L 10.15 -7.03 L 2.55 -7.03 L 3.25 -12.73 L 1.73 -12.73 L 0.17 0 Z M 23.18 0 L 23.83 -5.3 L 27.51 -5.3 L 30.17 0 L 31.96 0 L 29.26 -5.36 C 31.16 -5.64 32.72 -7.16 32.93 -9.04 C 32.95 -9.25 32.96 -9.4 32.96 -9.5 C 32.96 -11.29 31.56 -12.73 29.49 -12.73 L 23.22 -12.73 L 21.66 0 Z M 28.75 -6.61 L 24 -6.63 L 24.57 -11.4 L 29.24 -11.4 C 30.63 -11.4 31.52 -10.6 31.52 -9.39 C 31.52 -9.23 31.52 -9.12 31.5 -9.04 C 31.33 -7.6 30.25 -6.65 28.75 -6.61 Z M 68.08 -2.79 C 66.63 -0.95 64.45 0.21 62.15 0.21 C 59.93 0.21 58.04 -0.89 57.04 -2.66 C 56.52 -3.53 56.28 -4.5 56.28 -5.57 C 56.28 -5.83 56.3 -6.1 56.33 -6.37 C 56.62 -8.72 58.14 -10.85 60.31 -12.05 C 61.39 -12.63 62.53 -12.94 63.74 -12.94 C 66.1 -12.94 68.04 -11.7 69.01 -9.79 L 67.62 -9.04 C 66.94 -10.54 65.4 -11.51 63.57 -11.51 C 61.75 -11.51 59.96 -10.53 58.86 -8.95 C 58.31 -8.17 57.97 -7.3 57.85 -6.37 C 57.84 -6.08 57.82 -5.87 57.82 -5.74 C 57.82 -3.29 59.58 -1.23 62.32 -1.23 C 64.07 -1.23 65.78 -2.13 66.86 -3.55 Z M 85.25 0.21 C 87.68 0.21 89.96 -1.08 91.39 -3.1 C 92.09 -4.1 92.53 -5.19 92.66 -6.37 C 92.7 -6.63 92.72 -6.9 92.72 -7.16 C 92.72 -9.29 91.66 -11.15 89.87 -12.18 C 88.98 -12.69 87.97 -12.94 86.85 -12.94 C 84.42 -12.94 82.14 -11.67 80.71 -9.65 C 80.01 -8.64 79.57 -7.54 79.44 -6.37 C 79.4 -6.1 79.38 -5.83 79.38 -5.57 C 79.38 -3.44 80.46 -1.6 82.25 -0.57 C 83.14 -0.06 84.13 0.21 85.25 0.21 Z M 85.42 -1.23 C 82.69 -1.23 80.92 -3.29 80.92 -5.74 C 80.92 -5.87 80.94 -6.08 80.96 -6.37 C 81.19 -8.25 82.36 -9.9 84.06 -10.83 C 84.89 -11.29 85.77 -11.51 86.68 -11.51 C 89.41 -11.51 91.18 -9.48 91.18 -6.99 C 91.18 -6.86 91.16 -6.65 91.14 -6.37 C 90.91 -4.48 89.74 -2.83 88.06 -1.92 C 87.21 -1.46 86.34 -1.23 85.42 -1.23 Z M 104.27 0 L 105.56 -10.56 L 111.76 0 L 113.39 0 L 114.95 -12.73 L 113.43 -12.73 L 112.14 -2.15 L 105.92 -12.73 L 104.29 -12.73 L 104.31 -12.71 L 102.75 0 Z M 124.66 -3.42 C 125.19 -1.2 126.67 0.19 129.43 0.19 C 132.2 0.19 134.31 -1.39 134.58 -3.52 C 134.6 -3.61 134.6 -3.76 134.6 -3.93 C 134.6 -5.24 133.74 -6 132.66 -6.4 C 132.11 -6.61 131.4 -6.8 130.55 -7.01 C 129.09 -7.37 128.33 -7.58 127.76 -8.11 C 127.47 -8.38 127.32 -8.72 127.32 -9.14 C 127.32 -9.25 127.32 -9.33 127.34 -9.39 C 127.49 -10.7 128.91 -11.59 130.59 -11.59 C 132.32 -11.59 133.13 -10.87 133.65 -9.03 L 135.13 -9.6 C 134.54 -11.82 133.09 -12.92 130.74 -12.92 C 128.23 -12.92 126.06 -11.44 125.82 -9.39 C 125.8 -9.16 125.78 -9.01 125.78 -8.91 C 125.78 -7.54 126.67 -6.73 127.81 -6.31 C 128.36 -6.1 129.1 -5.87 130 -5.64 C 131.46 -5.28 132.22 -5.05 132.75 -4.54 C 133 -4.27 133.11 -3.93 133.06 -3.52 C 132.89 -2.09 131.54 -1.14 129.58 -1.14 C 127.51 -1.14 126.6 -2.11 126.16 -3.95 Z M 155.67 -12.73 L 154.74 -5.17 C 154.45 -2.83 152.55 -1.23 150.48 -1.23 C 148.41 -1.23 147.1 -2.74 147.1 -4.64 C 147.1 -4.73 147.12 -4.92 147.14 -5.17 L 148.07 -12.73 L 146.55 -12.73 L 145.62 -5.17 C 145.6 -4.86 145.58 -4.64 145.58 -4.5 C 145.58 -1.82 147.57 0.19 150.31 0.19 C 152.21 0.19 154.07 -0.85 155.23 -2.49 C 155.8 -3.31 156.14 -4.2 156.26 -5.17 L 157.19 -12.73 Z M 166.48 0 L 175.6 0 L 175.75 -1.33 L 168.15 -1.33 L 169.56 -12.73 L 168.04 -12.73 Z M 189.11 0 L 190.49 -11.4 L 195.07 -11.4 L 195.23 -12.73 L 184.59 -12.73 L 184.43 -11.4 L 188.97 -11.4 L 187.59 0 Z M 206.04 0 L 207.59 -12.73 L 206.07 -12.73 L 204.52 0 Z M 218.42 0 L 219.72 -10.56 L 225.91 0 L 227.54 0 L 229.1 -12.73 L 227.58 -12.73 L 226.29 -2.15 L 220.08 -12.73 L 218.44 -12.73 L 218.46 -12.71 L 216.9 0 Z M 252.43 -6.75 L 246.16 -6.75 L 246.01 -5.42 L 250.59 -5.42 C 250.08 -4.05 249.07 -2.81 247.8 -2.01 C 246.94 -1.5 246.07 -1.23 245.16 -1.23 C 242.42 -1.23 240.65 -3.29 240.65 -5.74 C 240.65 -5.87 240.67 -6.08 240.69 -6.37 C 240.92 -8.25 242.1 -9.9 243.79 -10.83 C 244.63 -11.29 245.5 -11.51 246.41 -11.51 C 248.24 -11.51 249.76 -10.56 250.46 -9.04 L 251.85 -9.79 C 250.88 -11.7 248.94 -12.94 246.58 -12.94 C 244.15 -12.94 241.87 -11.67 240.45 -9.65 C 239.74 -8.64 239.31 -7.54 239.17 -6.37 C 239.13 -6.1 239.12 -5.83 239.12 -5.59 C 239.12 -3.46 240.2 -1.6 241.98 -0.57 C 242.88 -0.06 243.87 0.21 244.99 0.21 C 247.04 0.21 249.01 -0.82 250.4 -2.49 L 250.1 0 L 251.62 0 Z" stroke-linecap="round" />
</g>
</g>
</g>
</svg>